<?xml version="1.0" standalone="no"?>
<!DOCTYPE svg PUBLIC "-//W3C//DTD SVG 20010904//EN"
 "http://www.w3.org/TR/2001/REC-SVG-20010904/DTD/svg10.dtd">
<svg version="1.0" xmlns="http://www.w3.org/2000/svg"
 width="270.000000pt" height="85.000000pt" viewBox="0 0 270.000000 85.000000"
 preserveAspectRatio="xMidYMid meet">

<g transform="translate(0.000000,85.000000) scale(0.100000,-0.100000)"
fill="#000000" stroke="none">
<path d="M170 770 l0 -80 -85 0 -85 0 0 -345 0 -345 85 0 84 0 3 143 3 142
158 3 157 3 0 54 0 55 40 0 40 0 0 145 0 145 -40 0 -40 0 0 80 0 80 -160 0
-160 0 0 -80z m320 -225 l0 -146 -157 3 -158 3 -3 143 -3 142 161 0 160 0 0
-145z"/>
<path d="M880 760 l0 -90 -65 0 -65 0 0 -80 0 -80 65 0 65 0 0 -55 0 -55 -65
0 -65 0 0 -130 0 -130 65 0 65 0 0 -70 0 -70 243 0 c134 0 246 2 248 4 2 2 2
34 1 70 l-4 66 -244 0 -244 0 0 130 0 130 205 0 205 0 0 55 0 55 40 0 40 0 0
70 c0 39 1 73 3 78 1 4 -17 8 -40 10 l-43 3 0 90 0 89 -205 0 -205 0 0 -90z
m410 -170 l0 -80 -205 0 -205 0 0 80 0 80 205 0 205 0 0 -80z"/>
<path d="M1460 625 l0 -225 95 0 95 0 0 -200 0 -200 120 0 120 0 0 200 0 200
50 0 50 0 0 225 0 225 -50 0 -50 0 0 -225 0 -225 -120 0 -120 0 0 225 0 225
-95 0 -95 0 0 -225z"/>
<path d="M2200 760 l0 -90 -65 0 -65 0 0 -80 0 -80 65 0 65 0 0 -55 0 -55 -65
0 -65 0 0 -130 0 -130 65 0 64 0 3 -67 3 -68 248 -3 247 -2 0 70 0 70 -245 0
-245 0 0 130 0 130 205 0 205 0 0 55 0 55 40 0 40 0 0 80 0 80 -40 0 -40 0 0
90 0 90 -210 0 -210 0 0 -90z m420 -170 l0 -80 -210 0 -210 0 0 80 0 80 210 0
210 0 0 -80z"/>
<path d="M530 70 l0 -70 75 0 75 0 0 70 0 70 -75 0 -75 0 0 -70z"/>
</g>
</svg>
